<svg width="396" height="91" viewBox="0 0 396 91" fill="none" xmlns="http://www.w3.org/2000/svg">
<path d="M17.1439 13.755V54.068C17.1439 58.8607 18.3876 62.4703 20.8749 64.897C23.4229 67.3237 26.9416 68.537 31.4309 68.537C35.9809 68.537 39.4996 67.3237 41.9869 64.897C44.5349 62.4703 45.8089 58.8607 45.8089 54.068V13.755H56.1829V53.886C56.1829 59.0427 55.0606 63.4107 52.8159 66.99C50.5712 70.5693 47.5682 73.2387 43.8069 74.998C40.0456 76.7573 35.8899 77.637 31.3399 77.637C26.7899 77.637 22.6342 76.7573 18.8729 74.998C15.1722 73.2387 12.2299 70.5693 10.0459 66.99C7.8619 63.4107 6.7699 59.0427 6.7699 53.886V13.755H17.1439ZM76.424 68.628H97.809V77H66.05V13.755H76.424V68.628ZM143.704 13.755V22.218H126.869V77H116.495V22.218H99.5686V13.755H143.704ZM160.944 13.755V77H150.57V13.755H160.944ZM237.536 13.755V77H227.162V33.684L207.87 77H200.681L181.298 33.684V77H170.924V13.755H182.117L204.321 63.35L226.434 13.755H237.536ZM285.66 64.078H259.179L254.629 77H243.8L266.459 13.664H278.471L301.13 77H290.21L285.66 64.078ZM282.748 55.615L272.465 26.222L262.091 55.615H282.748ZM348.201 13.755V22.218H331.366V77H320.992V22.218H304.066V13.755H348.201ZM365.441 22.127V40.691H387.281V49.154H365.441V68.537H390.011V77H355.067V13.664H390.011V22.127H365.441Z" fill="#484848"/>
</svg>
